<svg width="1154" height="1902" xmlns="http://www.w3.org/2000/svg" xmlns:xlink="http://www.w3.org/1999/xlink" xml:space="preserve" overflow="hidden"><defs><clipPath id="clip0"><rect x="589" y="404" width="1154" height="1902"/></clipPath></defs><g clip-path="url(#clip0)" transform="translate(-589 -404)"><path d="M589 440.336C589 420.82 604.82 405 624.336 405L1707.66 405C1727.18 405 1743 420.82 1743 440.336L1743 2270.66C1743 2290.18 1727.18 2306 1707.66 2306L624.336 2306C604.82 2306 589 2290.18 589 2270.66Z" fill="#B5D2EC" fill-rule="evenodd"/><path d="M589 439.722C589 419.993 605.005 404 624.749 404L1707.25 404C1726.99 404 1743 419.993 1743 439.722L1743 560.278C1743 580.007 1726.99 596 1707.25 596L1406.47 594.939 624.749 596C605.005 596 589 580.007 589 560.278L589 439.722Z" fill="#215F9A" fill-rule="evenodd"/><rect x="589" y="471" width="1154" height="125" fill="#215F9A"/><path d="M589 2149.72C589 2129.99 605.005 2114 624.749 2114L1707.25 2114C1726.99 2114 1743 2129.99 1743 2149.72L1743 2270.28C1743 2290.01 1726.99 2306 1707.25 2306L1406.47 2304.94 624.749 2306C605.005 2306 589 2290.01 589 2270.28L589 2149.72Z" fill="#215F9A" fill-rule="evenodd"/><rect x="589" y="2114" width="1154" height="125" fill="#215F9A"/></g></svg>